<?xml version="1.0" ?><svg enable-background="new 45.6 168.9 504 504" id="Layer_1" version="1.1" viewBox="45.6 168.9 504 504" xml:space="preserve" xmlns="http://www.w3.org/2000/svg" xmlns:xlink="http://www.w3.org/1999/xlink"><path d="M297.6,187.9c-64.1,0-116.5,52.4-116.5,116.5V351h46.6v-46.6c0-38.5,31.5-69.9,69.9-69.9  s69.9,31.5,69.9,69.9V351h46.6v-46.6C414.2,240.3,361.7,187.9,297.6,187.9z" fill="#424242"/><path d="M437.5,654H157.8c-25.6,0-46.6-21-46.6-46.6V397.6c0-25.6,21-46.6,46.6-46.6h279.6c25.6,0,46.6,21,46.6,46.6  v209.7C484.1,633,463.1,654,437.5,654z" fill="#FB8C00"/><circle cx="297.6" cy="502.5" fill="#C76E00" r="35"/></svg>